<svg width="16" height="16" viewBox="0 0 16 16" fill="none" xmlns="http://www.w3.org/2000/svg">
<path d="M12 15H4C3.44687 15 3 14.5531 3 14V2C3 1.44687 3.44687 1 4 1H8V4.5C8 5.32812 8.67188 6 9.5 6H13V14C13 14.5531 12.5531 15 12 15ZM9.5 5C9.225 5 9 4.775 9 4.5V1.01562C9.0875 1.0375 9.16875 1.08125 9.23125 1.14688L12.8531 4.76875C12.9187 4.83438 12.9625 4.9125 12.9844 5H9.5ZM4 0C2.89688 0 2 0.896875 2 2V14C2 15.1031 2.89688 16 4 16H12C13.1031 16 14 15.1031 14 14V5.12187C14 4.725 13.8406 4.34375 13.5594 4.0625L9.94063 0.440625C9.65938 0.159375 9.27812 0 8.88125 0H4ZM6.85313 9.35312C7.04688 9.15937 7.04688 8.84063 6.85313 8.64688C6.65938 8.45312 6.34062 8.45312 6.14687 8.64688L4.64687 10.1469C4.45312 10.3406 4.45312 10.6594 4.64687 10.8531L6.14687 12.3531C6.34062 12.5469 6.65938 12.5469 6.85313 12.3531C7.04688 12.1594 7.04688 11.8406 6.85313 11.6469L5.70625 10.5L6.85313 9.35312ZM11.3531 10.1469L9.85313 8.64688C9.65938 8.45312 9.34062 8.45312 9.14687 8.64688C8.95312 8.84063 8.95312 9.15937 9.14687 9.35312L10.2937 10.5L9.14687 11.6469C8.95312 11.8406 8.95312 12.1594 9.14687 12.3531C9.34062 12.5469 9.65938 12.5469 9.85313 12.3531L11.3531 10.8531C11.5469 10.6594 11.5469 10.3406 11.3531 10.1469Z" fill="#3FBEEA"/>
</svg>
