<svg width="13" height="13" viewBox="0 0 18 18" fill="none" xmlns="http://www.w3.org/2000/svg">
<rect x="0.5" y="0.5" width="13" height="13" rx="6.5" stroke="#F88D2B"/>
<path d="M7.28809 8.99805H6.37988C6.38314 8.68555 6.41081 8.43001 6.46289 8.23145C6.51823 8.02962 6.60775 7.8457 6.73145 7.67969C6.85514 7.51367 7.01953 7.32487 7.22461 7.11328C7.37435 6.96029 7.51107 6.81706 7.63477 6.68359C7.76172 6.54688 7.86426 6.40039 7.94238 6.24414C8.02051 6.08464 8.05957 5.89421 8.05957 5.67285C8.05957 5.44824 8.01888 5.25456 7.9375 5.0918C7.85938 4.92904 7.74219 4.80371 7.58594 4.71582C7.43294 4.62793 7.24251 4.58398 7.01465 4.58398C6.82585 4.58398 6.64681 4.61816 6.47754 4.68652C6.30827 4.75488 6.17155 4.86068 6.06738 5.00391C5.96322 5.14388 5.90951 5.3278 5.90625 5.55566H5.00293C5.00944 5.18783 5.10059 4.87207 5.27637 4.6084C5.4554 4.34473 5.69629 4.1429 5.99902 4.00293C6.30176 3.86296 6.6403 3.79297 7.01465 3.79297C7.42806 3.79297 7.77962 3.86784 8.06934 4.01758C8.3623 4.16732 8.58529 4.38216 8.73828 4.66211C8.89128 4.9388 8.96777 5.26758 8.96777 5.64844C8.96777 5.94141 8.90755 6.21159 8.78711 6.45898C8.66992 6.70312 8.51855 6.93262 8.33301 7.14746C8.14746 7.3623 7.95052 7.56738 7.74219 7.7627C7.56315 7.92871 7.44271 8.11589 7.38086 8.32422C7.31901 8.53255 7.28809 8.75716 7.28809 8.99805ZM6.34082 10.5459C6.34082 10.3994 6.38639 10.2757 6.47754 10.1748C6.56868 10.0739 6.70052 10.0234 6.87305 10.0234C7.04883 10.0234 7.18229 10.0739 7.27344 10.1748C7.36458 10.2757 7.41016 10.3994 7.41016 10.5459C7.41016 10.6859 7.36458 10.8063 7.27344 10.9072C7.18229 11.0081 7.04883 11.0586 6.87305 11.0586C6.70052 11.0586 6.56868 11.0081 6.47754 10.9072C6.38639 10.8063 6.34082 10.6859 6.34082 10.5459Z" fill="#F88D2B"/>
</svg>
